<svg width="305" height="114" viewBox="0 0 305 114" fill="none" xmlns="http://www.w3.org/2000/svg">
<path d="M14.5623 46.6259C14.5623 54.6207 17.7878 58.6182 24.2386 58.6182C25.7076 58.6182 27.0808 58.4263 28.3582 58.0425C29.6356 57.6588 30.7214 57.2111 31.6156 56.6994V33.8661C30.913 33.7382 30.0827 33.6423 29.1247 33.5783C28.1666 33.4504 27.0489 33.3864 25.7715 33.3864C22.0032 33.3864 19.1929 34.6336 17.3407 37.128C15.4884 39.6224 14.5623 42.7884 14.5623 46.6259ZM45.8905 67.1566C45.8905 75.4073 43.7828 81.5154 39.5674 85.4808C35.4158 89.5102 28.965 91.5249 20.2148 91.5249C17.1491 91.5249 14.0833 91.2371 11.0176 90.6615C7.9518 90.1498 5.10959 89.4463 2.49093 88.5508L4.98185 76.5586C7.2173 77.454 9.54855 78.1575 11.9756 78.6692C14.4665 79.1809 17.2768 79.4367 20.4064 79.4367C24.4941 79.4367 27.3682 78.5413 29.0289 76.7505C30.7533 74.9596 31.6156 72.6571 31.6156 69.8429V68.0201C30.0827 68.7236 28.486 69.2673 26.8253 69.651C25.2286 69.9708 23.4722 70.1307 21.5561 70.1307C14.5943 70.1307 9.26113 68.084 5.55668 63.9907C1.85223 59.8334 0 54.0451 0 46.6259C0 42.9163 0.574829 39.5585 1.72449 36.5524C2.87414 33.4824 4.53476 30.8601 6.70634 28.6855C8.94178 26.5109 11.6563 24.848 14.8497 23.6967C18.0432 22.4815 21.6519 21.8739 25.6757 21.8739C27.4002 21.8739 29.1566 21.9698 30.945 22.1617C32.7972 22.2896 34.6175 22.4815 36.4058 22.7373C38.1942 22.9932 39.8867 23.3129 41.4835 23.6967C43.1441 24.0165 44.6131 24.3683 45.8905 24.752V67.1566Z" fill="#434242"/>
<path d="M53.0519 48.6406C53.0519 44.1635 53.7225 40.262 55.0638 36.9361C56.4689 33.5463 58.2892 30.7322 60.5247 28.4936C62.7601 26.2551 65.3149 24.5601 68.1891 23.4089C71.1271 22.2576 74.129 21.682 77.1947 21.682C84.3482 21.682 90.0006 23.8886 94.1522 28.3017C98.3037 32.6509 100.379 39.0788 100.379 47.5853C100.379 48.4167 100.348 49.3441 100.284 50.3675C100.22 51.3269 100.156 52.1903 100.092 52.9578H67.71C68.0294 55.8999 69.4026 58.2344 71.8297 59.9613C74.2567 61.6882 77.5141 62.5516 81.6017 62.5516C84.2204 62.5516 86.7752 62.3278 89.2661 61.88C91.8209 61.3684 93.8967 60.7608 95.4934 60.0572L97.4095 71.6657C96.6431 72.0495 95.6212 72.4332 94.3438 72.817C93.0664 73.2007 91.6293 73.5205 90.0326 73.7764C88.4997 74.0962 86.8391 74.352 85.0507 74.5439C83.2624 74.7357 81.474 74.8317 79.6856 74.8317C75.1509 74.8317 71.191 74.1601 67.8059 72.817C64.4846 71.4739 61.7063 69.651 59.4708 67.3485C57.2993 64.982 55.6706 62.1998 54.5848 59.0019C53.5629 55.804 53.0519 52.3502 53.0519 48.6406ZM86.5836 43.1721C86.5197 41.9569 86.2962 40.7737 85.913 39.6224C85.5936 38.4712 85.0507 37.4478 84.2843 36.5524C83.5817 35.657 82.6556 34.9215 81.5059 34.3458C80.4202 33.7702 79.047 33.4824 77.3863 33.4824C75.7896 33.4824 74.4164 33.7702 73.2667 34.3458C72.1171 34.8575 71.159 35.561 70.3926 36.4565C69.6261 37.3519 69.0194 38.4072 68.5723 39.6224C68.1891 40.7737 67.9017 41.9569 67.71 43.1721H86.5836Z" fill="#434242"/>
<path d="M107.084 10.4573L121.359 8.15473V23.0251H138.508V34.9215H121.359V52.67C121.359 55.6761 121.87 58.0745 122.892 59.8653C123.978 61.6562 126.118 62.5516 129.311 62.5516C130.844 62.5516 132.409 62.4237 134.005 62.1679C135.666 61.8481 137.167 61.4323 138.508 60.9207L140.52 72.0495C138.796 72.753 136.88 73.3606 134.772 73.8723C132.664 74.384 130.077 74.6398 127.012 74.6398C123.116 74.6398 119.89 74.1281 117.335 73.1048C114.781 72.0175 112.737 70.5465 111.204 68.6917C109.671 66.7729 108.585 64.4704 107.947 61.7841C107.372 59.0978 107.084 56.1238 107.084 52.8619V10.4573Z" fill="#434242"/>
<path d="M160.288 65.9094C160.288 68.7876 159.362 70.9942 157.51 72.5292C155.721 74.0002 153.678 74.7357 151.378 74.7357C149.079 74.7357 147.003 74.0002 145.151 72.5292C143.363 70.9942 142.468 68.7876 142.468 65.9094C142.468 63.0313 143.363 60.8567 145.151 59.3857C147.003 57.8507 149.079 57.0831 151.378 57.0831C153.678 57.0831 155.721 57.8507 157.51 59.3857C159.362 60.8567 160.288 63.0313 160.288 65.9094Z" fill="#434242"/>
<path d="M180.32 73.4886H166.045V23.0251H180.32V73.4886ZM181.662 8.44255C181.662 11.0649 180.799 13.1435 179.075 14.6785C177.414 16.1496 175.434 16.8851 173.135 16.8851C170.836 16.8851 168.824 16.1496 167.099 14.6785C165.439 13.1435 164.608 11.0649 164.608 8.44255C164.608 5.82024 165.439 3.77356 167.099 2.30251C168.824 0.767504 170.836 0 173.135 0C175.434 0 177.414 0.767504 179.075 2.30251C180.799 3.77356 181.662 5.82024 181.662 8.44255Z" fill="#434242"/>
<path d="M189.428 10.4573L203.703 8.15473V23.0251H220.852V34.9215H203.703V52.67C203.703 55.6761 204.214 58.0745 205.236 59.8653C206.321 61.6562 208.461 62.5516 211.655 62.5516C213.187 62.5516 214.752 62.4237 216.349 62.1679C218.01 61.8481 219.511 61.4323 220.852 60.9207L222.864 72.0495C221.139 72.753 219.223 73.3606 217.115 73.8723C215.008 74.384 212.421 74.6398 209.355 74.6398C205.459 74.6398 202.234 74.1281 199.679 73.1048C197.124 72.0175 195.08 70.5465 193.547 68.6917C192.015 66.7729 190.929 64.4704 190.29 61.7841C189.715 59.0978 189.428 56.1238 189.428 52.8619V10.4573Z" fill="#434242"/>
<path d="M102.607 83.6836C103.68 83.6836 104.625 83.7859 105.443 83.9906C106.26 84.1697 106.873 84.3359 107.282 84.4894L106.401 88.327C105.967 88.1223 105.456 87.956 104.868 87.8281C104.306 87.7002 103.693 87.6362 103.028 87.6362C102.288 87.6362 101.662 87.7513 101.151 87.9816C100.64 88.1863 100.231 88.4805 99.9244 88.8642C99.6178 89.248 99.4007 89.7213 99.2729 90.2841C99.1452 90.8214 99.0813 91.4098 99.0813 92.0494V93.3925H106.362V97.2684H99.0813V113.463H94.4444V91.9726C94.4444 89.3887 95.1214 87.3676 96.4754 85.9093C97.8295 84.4255 99.8733 83.6836 102.607 83.6836Z" fill="#7F417F"/>
<path d="M127.54 103.408C127.54 104.995 127.31 106.44 126.85 107.745C126.39 109.05 125.739 110.162 124.896 111.083C124.053 112.004 123.031 112.721 121.83 113.232C120.655 113.744 119.352 114 117.921 114C116.491 114 115.188 113.744 114.013 113.232C112.837 112.721 111.828 112.004 110.985 111.083C110.142 110.162 109.478 109.05 108.992 107.745C108.532 106.44 108.303 104.995 108.303 103.408C108.303 101.822 108.532 100.39 108.992 99.1104C109.478 97.8056 110.142 96.6928 110.985 95.7718C111.854 94.8508 112.876 94.1472 114.051 93.6611C115.226 93.1495 116.516 92.8936 117.921 92.8936C119.326 92.8936 120.617 93.1495 121.792 93.6611C122.993 94.1472 124.015 94.8508 124.858 95.7718C125.701 96.6928 126.352 97.8056 126.812 99.1104C127.297 100.39 127.54 101.822 127.54 103.408ZM122.788 103.408C122.788 101.413 122.354 99.8395 121.485 98.6883C120.642 97.5114 119.454 96.923 117.921 96.923C116.388 96.923 115.188 97.5114 114.319 98.6883C113.476 99.8395 113.054 101.413 113.054 103.408C113.054 105.43 113.476 107.028 114.319 108.205C115.188 109.382 116.388 109.971 117.921 109.971C119.454 109.971 120.642 109.382 121.485 108.205C122.354 107.028 122.788 105.43 122.788 103.408Z" fill="#7F417F"/>
<path d="M143.737 97.5754C143.354 97.4475 142.817 97.3196 142.128 97.1916C141.463 97.0381 140.684 96.9614 139.79 96.9614C139.279 96.9614 138.73 97.0126 138.142 97.1149C137.58 97.2172 137.184 97.3068 136.954 97.3835V113.463H132.317V94.3519C133.211 94.0193 134.323 93.7123 135.651 93.4309C137.005 93.1239 138.5 92.9704 140.135 92.9704C140.441 92.9704 140.799 92.9959 141.208 93.0471C141.617 93.0727 142.025 93.1239 142.434 93.2006C142.843 93.2518 143.239 93.3285 143.622 93.4309C144.005 93.5076 144.312 93.5844 144.542 93.6611L143.737 97.5754Z" fill="#7F417F"/>
<path d="M170.015 103.37C170.015 101.4 169.619 99.8395 168.827 98.6883C168.061 97.537 166.834 96.9614 165.148 96.9614C164.382 96.9614 163.654 97.0765 162.964 97.3068C162.3 97.537 161.763 97.7929 161.354 98.0743V109.625C161.687 109.702 162.108 109.779 162.619 109.855C163.156 109.907 163.794 109.932 164.535 109.932C166.247 109.932 167.588 109.357 168.559 108.205C169.53 107.028 170.015 105.417 170.015 103.37ZM174.767 103.447C174.767 105.059 174.524 106.517 174.039 107.822C173.579 109.101 172.902 110.201 172.008 111.122C171.139 112.043 170.079 112.746 168.827 113.232C167.575 113.719 166.157 113.962 164.574 113.962C163.041 113.962 161.572 113.846 160.166 113.616C158.787 113.386 157.637 113.13 156.718 112.849V84.4511L161.354 83.6836V94.0833C161.891 93.8018 162.542 93.546 163.309 93.3158C164.101 93.0855 164.969 92.9704 165.915 92.9704C167.32 92.9704 168.572 93.2262 169.67 93.7379C170.794 94.224 171.727 94.9275 172.468 95.8485C173.209 96.7695 173.771 97.8824 174.154 99.1872C174.563 100.466 174.767 101.886 174.767 103.447Z" fill="#7F417F"/>
<path d="M195.986 112.849C195.092 113.079 193.929 113.309 192.499 113.539C191.068 113.795 189.497 113.923 187.785 113.923C186.176 113.923 184.822 113.693 183.723 113.232C182.65 112.772 181.781 112.132 181.117 111.314C180.479 110.495 180.019 109.523 179.738 108.397C179.457 107.246 179.316 105.992 179.316 104.636V93.3925H183.953V103.907C183.953 106.056 184.26 107.591 184.873 108.512C185.511 109.433 186.61 109.894 188.168 109.894C188.73 109.894 189.318 109.868 189.931 109.817C190.57 109.766 191.043 109.702 191.349 109.625V93.3925H195.986V112.849Z" fill="#7F417F"/>
<path d="M206.908 110.124C208.134 110.124 209.029 109.983 209.591 109.702C210.153 109.395 210.434 108.883 210.434 108.167C210.434 107.502 210.127 106.952 209.514 106.517C208.926 106.082 207.943 105.609 206.563 105.097C205.72 104.79 204.941 104.47 204.226 104.138C203.536 103.779 202.935 103.37 202.424 102.91C201.914 102.449 201.505 101.899 201.198 101.259C200.917 100.594 200.777 99.7884 200.777 98.8418C200.777 96.9998 201.454 95.5543 202.808 94.5054C204.162 93.4309 206.001 92.8936 208.326 92.8936C209.501 92.8936 210.625 93.0087 211.698 93.239C212.771 93.4437 213.576 93.6483 214.113 93.853L213.27 97.6138C212.759 97.3835 212.107 97.1789 211.315 96.9998C210.523 96.7951 209.603 96.6928 208.556 96.6928C207.611 96.6928 206.844 96.8591 206.257 97.1916C205.669 97.4986 205.375 97.9847 205.375 98.6499C205.375 98.9825 205.426 99.2767 205.529 99.5325C205.656 99.7884 205.861 100.031 206.142 100.262C206.423 100.466 206.793 100.684 207.253 100.914C207.713 101.119 208.275 101.336 208.939 101.566C210.038 101.976 210.97 102.385 211.737 102.794C212.503 103.178 213.129 103.626 213.614 104.138C214.125 104.624 214.496 105.186 214.726 105.826C214.956 106.466 215.071 107.233 215.071 108.129C215.071 110.047 214.355 111.506 212.925 112.503C211.52 113.476 209.501 113.962 206.87 113.962C205.107 113.962 203.689 113.808 202.616 113.501C201.543 113.22 200.789 112.989 200.355 112.81L201.16 108.934C201.85 109.216 202.667 109.485 203.612 109.74C204.583 109.996 205.682 110.124 206.908 110.124Z" fill="#7F417F"/>
<path d="M224.078 113.463H219.441V93.3925H224.078V113.463ZM224.576 87.5211C224.576 88.3909 224.295 89.0817 223.733 89.5934C223.171 90.105 222.506 90.3609 221.74 90.3609C220.948 90.3609 220.271 90.105 219.709 89.5934C219.147 89.0817 218.866 88.3909 218.866 87.5211C218.866 86.6257 219.147 85.9221 219.709 85.4105C220.271 84.8988 220.948 84.6429 221.74 84.6429C222.506 84.6429 223.171 84.8988 223.733 85.4105C224.295 85.9221 224.576 86.6257 224.576 87.5211Z" fill="#7F417F"/>
<path d="M229.993 94.0449C230.887 93.789 232.05 93.546 233.481 93.3158C234.911 93.0855 236.495 92.9704 238.232 92.9704C239.867 92.9704 241.234 93.2006 242.333 93.6611C243.431 94.096 244.3 94.7228 244.939 95.5415C245.603 96.3346 246.063 97.3068 246.318 98.458C246.599 99.5837 246.74 100.825 246.74 102.18V113.463H242.103V102.91C242.103 101.835 242.026 100.927 241.873 100.185C241.745 99.4174 241.515 98.8034 241.183 98.3429C240.877 97.8568 240.442 97.5114 239.88 97.3068C239.344 97.0765 238.68 96.9614 237.888 96.9614C237.3 96.9614 236.687 96.9998 236.048 97.0765C235.409 97.1533 234.937 97.2172 234.63 97.2684V113.463H229.993V94.0449Z" fill="#7F417F"/>
<path d="M251.299 103.524C251.299 101.758 251.554 100.211 252.065 98.8802C252.602 97.5498 253.304 96.4497 254.173 95.5799C255.041 94.6845 256.038 94.0193 257.162 93.5844C258.286 93.1239 259.436 92.8936 260.611 92.8936C263.37 92.8936 265.516 93.7507 267.049 95.4648C268.607 97.1789 269.387 99.7372 269.387 103.14C269.387 103.396 269.374 103.69 269.348 104.022C269.348 104.329 269.336 104.611 269.31 104.867H256.089C256.217 106.478 256.779 107.732 257.775 108.627C258.797 109.497 260.266 109.932 262.182 109.932C263.306 109.932 264.328 109.83 265.248 109.625C266.193 109.421 266.934 109.203 267.471 108.973L268.084 112.772C267.828 112.9 267.471 113.041 267.011 113.194C266.576 113.322 266.065 113.437 265.478 113.539C264.916 113.667 264.303 113.77 263.638 113.846C262.974 113.923 262.297 113.962 261.607 113.962C259.844 113.962 258.312 113.706 257.009 113.194C255.706 112.657 254.633 111.928 253.79 111.007C252.947 110.06 252.321 108.96 251.912 107.706C251.503 106.427 251.299 105.033 251.299 103.524ZM264.75 101.451C264.75 100.812 264.66 100.21 264.481 99.6477C264.303 99.0592 264.034 98.5604 263.677 98.151C263.345 97.7161 262.923 97.3835 262.412 97.1533C261.927 96.8974 261.339 96.7695 260.649 96.7695C259.934 96.7695 259.308 96.9102 258.771 97.1916C258.235 97.4475 257.775 97.7929 257.392 98.2278C257.034 98.6627 256.753 99.1616 256.549 99.7244C256.344 100.287 256.204 100.863 256.127 101.451H264.75Z" fill="#7F417F"/>
<path d="M279.323 110.124C280.549 110.124 281.444 109.983 282.006 109.702C282.568 109.395 282.849 108.883 282.849 108.167C282.849 107.502 282.542 106.952 281.929 106.517C281.341 106.082 280.358 105.609 278.978 105.097C278.135 104.79 277.356 104.47 276.641 104.138C275.951 103.779 275.35 103.37 274.839 102.91C274.328 102.449 273.92 101.899 273.613 101.259C273.332 100.594 273.192 99.7884 273.192 98.8418C273.192 96.9998 273.869 95.5543 275.223 94.5054C276.577 93.4309 278.416 92.8936 280.741 92.8936C281.916 92.8936 283.04 93.0087 284.113 93.239C285.186 93.4437 285.991 93.6483 286.528 93.853L285.685 97.6138C285.174 97.3835 284.522 97.1789 283.73 96.9998C282.938 96.7951 282.018 96.6928 280.971 96.6928C280.026 96.6928 279.259 96.8591 278.672 97.1916C278.084 97.4986 277.79 97.9847 277.79 98.6499C277.79 98.9825 277.841 99.2767 277.944 99.5325C278.071 99.7884 278.276 100.031 278.557 100.262C278.838 100.466 279.208 100.684 279.668 100.914C280.128 101.119 280.69 101.336 281.354 101.566C282.453 101.976 283.385 102.385 284.152 102.794C284.918 103.178 285.544 103.626 286.029 104.138C286.54 104.624 286.911 105.186 287.141 105.826C287.371 106.466 287.486 107.233 287.486 108.129C287.486 110.047 286.77 111.506 285.34 112.503C283.935 113.476 281.916 113.962 279.285 113.962C277.522 113.962 276.104 113.808 275.031 113.501C273.958 113.22 273.204 112.989 272.77 112.81L273.575 108.934C274.265 109.216 275.082 109.485 276.027 109.74C276.998 109.996 278.097 110.124 279.323 110.124Z" fill="#7F417F"/>
<path d="M296.837 110.124C298.064 110.124 298.958 109.983 299.52 109.702C300.082 109.395 300.363 108.883 300.363 108.167C300.363 107.502 300.056 106.952 299.443 106.517C298.856 106.082 297.872 105.609 296.493 105.097C295.649 104.79 294.87 104.47 294.155 104.138C293.465 103.779 292.865 103.37 292.354 102.91C291.843 102.449 291.434 101.899 291.127 101.259C290.846 100.594 290.706 99.7884 290.706 98.8418C290.706 96.9998 291.383 95.5543 292.737 94.5054C294.091 93.4309 295.93 92.8936 298.255 92.8936C299.431 92.8936 300.555 93.0087 301.628 93.239C302.701 93.4437 303.505 93.6483 304.042 93.853L303.199 97.6138C302.688 97.3835 302.036 97.1789 301.244 96.9998C300.452 96.7951 299.533 96.6928 298.485 96.6928C297.54 96.6928 296.774 96.8591 296.186 97.1916C295.598 97.4986 295.305 97.9847 295.305 98.6499C295.305 98.9825 295.356 99.2767 295.458 99.5325C295.586 99.7884 295.79 100.031 296.071 100.262C296.352 100.466 296.722 100.684 297.182 100.914C297.642 101.119 298.204 101.336 298.868 101.566C299.967 101.976 300.9 102.385 301.666 102.794C302.432 103.178 303.058 103.626 303.544 104.138C304.055 104.624 304.425 105.186 304.655 105.826C304.885 106.466 305 107.233 305 108.129C305 110.047 304.285 111.506 302.854 112.503C301.449 113.476 299.431 113.962 296.799 113.962C295.036 113.962 293.618 113.808 292.545 113.501C291.472 113.22 290.719 112.989 290.284 112.81L291.089 108.934C291.779 109.216 292.596 109.485 293.542 109.74C294.513 109.996 295.611 110.124 296.837 110.124Z" fill="#7F417F"/>
</svg>
